<svg id="レイヤー_1" data-name="レイヤー 1" xmlns="http://www.w3.org/2000/svg" viewBox="0 0 150 150"><rect x="38.07" y="39.19" width="97.94" height="97.94"/><rect x="12.5" y="13.63" width="96.78" height="96.78" style="fill:#3fa9f5"/><rect x="38.07" y="39.19" width="97.94" height="97.94"/><path d="M102.76,97.67,89.94,110.52a3.48,3.48,0,0,1-2.38,1,3.35,3.35,0,0,1-2.35-1L66.53,91.81a9.08,9.08,0,0,1-2.38-5.69V75.25a3.37,3.37,0,0,1,3.35-3.34H78.37a9.2,9.2,0,0,1,5.72,2.38l18.67,18.65a3.42,3.42,0,0,1,1,2.37A3.36,3.36,0,0,1,102.76,97.67ZM72.51,76.92a3.35,3.35,0,1,0,3.35,3.35A3.34,3.34,0,0,0,72.51,76.92ZM112.8,97.67,100,110.52a3.48,3.48,0,0,1-2.38,1,3.7,3.7,0,0,1-2.92-1.54l12.27-12.27a3.4,3.4,0,0,0,1-2.36,3.47,3.47,0,0,0-1-2.37L88.27,74.29a9.2,9.2,0,0,0-5.73-2.38H88.4a9.17,9.17,0,0,1,5.72,2.38L112.8,92.94a3.46,3.46,0,0,1,1,2.37A3.4,3.4,0,0,1,112.8,97.67Z" style="fill:#3fa9f5"/></svg>